<?xml version="1.0" encoding="UTF-8" standalone="no"?>
<!DOCTYPE svg PUBLIC "-//W3C//DTD SVG 1.1//EN"
 "http://www.w3.org/Graphics/SVG/1.1/DTD/svg11.dtd">
<!-- Generated by graphviz version 2.43.0 (0)
 -->
<!-- Title: snakemake_dag Pages: 1 -->
<svg width="9274pt" height="409pt"
 viewBox="0.00 0.00 9273.96 409.00" xmlns="http://www.w3.org/2000/svg" xmlns:xlink="http://www.w3.org/1999/xlink">
<g id="graph0" class="graph" transform="scale(1 1) rotate(0) translate(4 405)">
<title>snakemake_dag</title>
<polygon fill="white" stroke="transparent" points="-4,4 -4,-405 9269.96,-405 9269.96,4 -4,4"/>
<!-- 0 -->
<g id="node1" class="node">
<title>0</title>
<path fill="none" stroke="#d8b456" stroke-width="2" stroke-dasharray="5,2" d="M8405.5,-36C8405.5,-36 8375.5,-36 8375.5,-36 8369.5,-36 8363.5,-30 8363.5,-24 8363.5,-24 8363.5,-12 8363.5,-12 8363.5,-6 8369.5,0 8375.5,0 8375.5,0 8405.5,0 8405.5,0 8411.5,0 8417.5,-6 8417.5,-12 8417.5,-12 8417.5,-24 8417.5,-24 8417.5,-30 8411.5,-36 8405.5,-36"/>
<text text-anchor="middle" x="8390.5" y="-15.5" font-family="sans" font-size="10.00">all</text>
</g>
<!-- 1 -->
<g id="node2" class="node">
<title>1</title>
<path fill="none" stroke="#56d89a" stroke-width="2" stroke-dasharray="5,2" d="M3251,-108C3251,-108 3204,-108 3204,-108 3198,-108 3192,-102 3192,-96 3192,-96 3192,-84 3192,-84 3192,-78 3198,-72 3204,-72 3204,-72 3251,-72 3251,-72 3257,-72 3263,-78 3263,-84 3263,-84 3263,-96 3263,-96 3263,-102 3257,-108 3251,-108"/>
<text text-anchor="middle" x="3227.5" y="-87.5" font-family="sans" font-size="10.00">multiqc_dir</text>
</g>
<!-- 1&#45;&gt;0 -->
<g id="edge1" class="edge">
<title>1&#45;&gt;0</title>
<path fill="none" stroke="grey" stroke-width="2" d="M3263.23,-88.52C3695.39,-82.66 7910.69,-25.51 8353.01,-19.51"/>
<polygon fill="grey" stroke="grey" stroke-width="2" points="8353.37,-23 8363.32,-19.37 8353.27,-16 8353.37,-23"/>
</g>
<!-- 2 -->
<g id="node3" class="node">
<title>2</title>
<path fill="none" stroke="#5682d8" stroke-width="2" stroke-dasharray="5,2" d="M1502,-185C1502,-185 1149,-185 1149,-185 1143,-185 1137,-179 1137,-173 1137,-173 1137,-156 1137,-156 1137,-150 1143,-144 1149,-144 1149,-144 1502,-144 1502,-144 1508,-144 1514,-150 1514,-156 1514,-156 1514,-173 1514,-173 1514,-179 1508,-185 1502,-185"/>
<text text-anchor="middle" x="1325.5" y="-173" font-family="sans" font-size="10.00">fastqc_raw</text>
<text text-anchor="middle" x="1325.5" y="-162" font-family="sans" font-size="10.00">r: 1</text>
<text text-anchor="middle" x="1325.5" y="-151" font-family="sans" font-size="10.00">read: KAPA_mRNA_HyperPrep_&#45;UHRR&#45;KAPA&#45;100_ng_total_RNA&#45;2_S7_L001</text>
</g>
<!-- 2&#45;&gt;1 -->
<g id="edge11" class="edge">
<title>2&#45;&gt;1</title>
<path fill="none" stroke="grey" stroke-width="2" d="M1514.21,-144.56C1516.99,-144.36 1519.76,-144.18 1522.5,-144 2180.47,-101.26 2983.58,-92.77 3181.71,-91.29"/>
<polygon fill="grey" stroke="grey" stroke-width="2" points="3181.78,-94.79 3191.76,-91.21 3181.73,-87.79 3181.78,-94.79"/>
</g>
<!-- 3 -->
<g id="node4" class="node">
<title>3</title>
<path fill="none" stroke="#5682d8" stroke-width="2" stroke-dasharray="5,2" d="M1897,-185C1897,-185 1544,-185 1544,-185 1538,-185 1532,-179 1532,-173 1532,-173 1532,-156 1532,-156 1532,-150 1538,-144 1544,-144 1544,-144 1897,-144 1897,-144 1903,-144 1909,-150 1909,-156 1909,-156 1909,-173 1909,-173 1909,-179 1903,-185 1897,-185"/>
<text text-anchor="middle" x="1720.5" y="-173" font-family="sans" font-size="10.00">fastqc_raw</text>
<text text-anchor="middle" x="1720.5" y="-162" font-family="sans" font-size="10.00">r: 2</text>
<text text-anchor="middle" x="1720.5" y="-151" font-family="sans" font-size="10.00">read: KAPA_mRNA_HyperPrep_&#45;UHRR&#45;KAPA&#45;100_ng_total_RNA&#45;2_S7_L001</text>
</g>
<!-- 3&#45;&gt;1 -->
<g id="edge12" class="edge">
<title>3&#45;&gt;1</title>
<path fill="none" stroke="grey" stroke-width="2" d="M1909.12,-144.67C1912.27,-144.44 1915.4,-144.22 1918.5,-144 2412.47,-109.7 3012.96,-95.41 3181.55,-91.9"/>
<polygon fill="grey" stroke="grey" stroke-width="2" points="3181.87,-95.4 3191.8,-91.69 3181.73,-88.4 3181.87,-95.4"/>
</g>
<!-- 4 -->
<g id="node5" class="node">
<title>4</title>
<path fill="none" stroke="#5682d8" stroke-width="2" stroke-dasharray="5,2" d="M2285.5,-185C2285.5,-185 1939.5,-185 1939.5,-185 1933.5,-185 1927.5,-179 1927.5,-173 1927.5,-173 1927.5,-156 1927.5,-156 1927.5,-150 1933.5,-144 1939.5,-144 1939.5,-144 2285.5,-144 2285.5,-144 2291.5,-144 2297.5,-150 2297.5,-156 2297.5,-156 2297.5,-173 2297.5,-173 2297.5,-179 2291.5,-185 2285.5,-185"/>
<text text-anchor="middle" x="2112.5" y="-173" font-family="sans" font-size="10.00">fastqc_raw</text>
<text text-anchor="middle" x="2112.5" y="-162" font-family="sans" font-size="10.00">r: 1</text>
<text text-anchor="middle" x="2112.5" y="-151" font-family="sans" font-size="10.00">read: KAPA_mRNA_HyperPrep_&#45;HBR&#45;KAPA&#45;100_ng_total_RNA&#45;2_S5_L001</text>
</g>
<!-- 4&#45;&gt;1 -->
<g id="edge13" class="edge">
<title>4&#45;&gt;1</title>
<path fill="none" stroke="grey" stroke-width="2" d="M2297.57,-144.72C2300.57,-144.47 2303.55,-144.23 2306.5,-144 2641.89,-117.51 3046.98,-98.81 3181.57,-92.95"/>
<polygon fill="grey" stroke="grey" stroke-width="2" points="3182.06,-96.43 3191.9,-92.5 3181.76,-89.44 3182.06,-96.43"/>
</g>
<!-- 5 -->
<g id="node6" class="node">
<title>5</title>
<path fill="none" stroke="#5682d8" stroke-width="2" stroke-dasharray="5,2" d="M2673.5,-185C2673.5,-185 2327.5,-185 2327.5,-185 2321.5,-185 2315.5,-179 2315.5,-173 2315.5,-173 2315.5,-156 2315.5,-156 2315.5,-150 2321.5,-144 2327.5,-144 2327.5,-144 2673.5,-144 2673.5,-144 2679.5,-144 2685.5,-150 2685.5,-156 2685.5,-156 2685.5,-173 2685.5,-173 2685.5,-179 2679.5,-185 2673.5,-185"/>
<text text-anchor="middle" x="2500.5" y="-173" font-family="sans" font-size="10.00">fastqc_raw</text>
<text text-anchor="middle" x="2500.5" y="-162" font-family="sans" font-size="10.00">r: 2</text>
<text text-anchor="middle" x="2500.5" y="-151" font-family="sans" font-size="10.00">read: KAPA_mRNA_HyperPrep_&#45;HBR&#45;KAPA&#45;100_ng_total_RNA&#45;2_S5_L001</text>
</g>
<!-- 5&#45;&gt;1 -->
<g id="edge14" class="edge">
<title>5&#45;&gt;1</title>
<path fill="none" stroke="grey" stroke-width="2" d="M2685.59,-144.89C2688.58,-144.59 2691.55,-144.29 2694.5,-144 2874.92,-125.96 3089.71,-104.66 3181.85,-95.52"/>
<polygon fill="grey" stroke="grey" stroke-width="2" points="3182.34,-98.99 3191.94,-94.52 3181.65,-92.03 3182.34,-98.99"/>
</g>
<!-- 6 -->
<g id="node7" class="node">
<title>6</title>
<path fill="none" stroke="#5682d8" stroke-width="2" stroke-dasharray="5,2" d="M3029,-185C3029,-185 2716,-185 2716,-185 2710,-185 2704,-179 2704,-173 2704,-173 2704,-156 2704,-156 2704,-150 2710,-144 2716,-144 2716,-144 3029,-144 3029,-144 3035,-144 3041,-150 3041,-156 3041,-156 3041,-173 3041,-173 3041,-179 3035,-185 3029,-185"/>
<text text-anchor="middle" x="2872.5" y="-173" font-family="sans" font-size="10.00">fastqc_raw</text>
<text text-anchor="middle" x="2872.5" y="-162" font-family="sans" font-size="10.00">r: 1</text>
<text text-anchor="middle" x="2872.5" y="-151" font-family="sans" font-size="10.00">read: Collibri_standard_protocol&#45;UHRR&#45;Collibri&#45;100_ng&#45;3_S4_L001</text>
</g>
<!-- 6&#45;&gt;1 -->
<g id="edge15" class="edge">
<title>6&#45;&gt;1</title>
<path fill="none" stroke="grey" stroke-width="2" d="M2968.1,-143.98C3037.36,-129.83 3127.93,-111.33 3181.68,-100.36"/>
<polygon fill="grey" stroke="grey" stroke-width="2" points="3182.51,-103.76 3191.6,-98.33 3181.1,-96.9 3182.51,-103.76"/>
</g>
<!-- 7 -->
<g id="node8" class="node">
<title>7</title>
<path fill="none" stroke="#5682d8" stroke-width="2" stroke-dasharray="5,2" d="M3384,-185C3384,-185 3071,-185 3071,-185 3065,-185 3059,-179 3059,-173 3059,-173 3059,-156 3059,-156 3059,-150 3065,-144 3071,-144 3071,-144 3384,-144 3384,-144 3390,-144 3396,-150 3396,-156 3396,-156 3396,-173 3396,-173 3396,-179 3390,-185 3384,-185"/>
<text text-anchor="middle" x="3227.5" y="-173" font-family="sans" font-size="10.00">fastqc_raw</text>
<text text-anchor="middle" x="3227.5" y="-162" font-family="sans" font-size="10.00">r: 2</text>
<text text-anchor="middle" x="3227.5" y="-151" font-family="sans" font-size="10.00">read: Collibri_standard_protocol&#45;UHRR&#45;Collibri&#45;100_ng&#45;3_S4_L001</text>
</g>
<!-- 7&#45;&gt;1 -->
<g id="edge16" class="edge">
<title>7&#45;&gt;1</title>
<path fill="none" stroke="grey" stroke-width="2" d="M3227.5,-143.69C3227.5,-135.91 3227.5,-126.84 3227.5,-118.45"/>
<polygon fill="grey" stroke="grey" stroke-width="2" points="3231,-118.32 3227.5,-108.32 3224,-118.32 3231,-118.32"/>
</g>
<!-- 8 -->
<g id="node9" class="node">
<title>8</title>
<path fill="none" stroke="#5682d8" stroke-width="2" stroke-dasharray="5,2" d="M3772.5,-185C3772.5,-185 3426.5,-185 3426.5,-185 3420.5,-185 3414.5,-179 3414.5,-173 3414.5,-173 3414.5,-156 3414.5,-156 3414.5,-150 3420.5,-144 3426.5,-144 3426.5,-144 3772.5,-144 3772.5,-144 3778.5,-144 3784.5,-150 3784.5,-156 3784.5,-156 3784.5,-173 3784.5,-173 3784.5,-179 3778.5,-185 3772.5,-185"/>
<text text-anchor="middle" x="3599.5" y="-173" font-family="sans" font-size="10.00">fastqc_raw</text>
<text text-anchor="middle" x="3599.5" y="-162" font-family="sans" font-size="10.00">r: 1</text>
<text text-anchor="middle" x="3599.5" y="-151" font-family="sans" font-size="10.00">read: KAPA_mRNA_HyperPrep_&#45;HBR&#45;KAPA&#45;100_ng_total_RNA&#45;3_S6_L001</text>
</g>
<!-- 8&#45;&gt;1 -->
<g id="edge17" class="edge">
<title>8&#45;&gt;1</title>
<path fill="none" stroke="grey" stroke-width="2" d="M3499.32,-143.98C3425.78,-129.64 3329.32,-110.84 3273.29,-99.92"/>
<polygon fill="grey" stroke="grey" stroke-width="2" points="3273.8,-96.46 3263.32,-97.98 3272.46,-103.33 3273.8,-96.46"/>
</g>
<!-- 9 -->
<g id="node10" class="node">
<title>9</title>
<path fill="none" stroke="#5682d8" stroke-width="2" stroke-dasharray="5,2" d="M4160.5,-185C4160.5,-185 3814.5,-185 3814.5,-185 3808.5,-185 3802.5,-179 3802.5,-173 3802.5,-173 3802.5,-156 3802.5,-156 3802.5,-150 3808.5,-144 3814.5,-144 3814.5,-144 4160.5,-144 4160.5,-144 4166.5,-144 4172.5,-150 4172.5,-156 4172.5,-156 4172.5,-173 4172.5,-173 4172.5,-179 4166.5,-185 4160.5,-185"/>
<text text-anchor="middle" x="3987.5" y="-173" font-family="sans" font-size="10.00">fastqc_raw</text>
<text text-anchor="middle" x="3987.5" y="-162" font-family="sans" font-size="10.00">r: 2</text>
<text text-anchor="middle" x="3987.5" y="-151" font-family="sans" font-size="10.00">read: KAPA_mRNA_HyperPrep_&#45;HBR&#45;KAPA&#45;100_ng_total_RNA&#45;3_S6_L001</text>
</g>
<!-- 9&#45;&gt;1 -->
<g id="edge18" class="edge">
<title>9&#45;&gt;1</title>
<path fill="none" stroke="grey" stroke-width="2" d="M3802.41,-144.87C3799.42,-144.58 3796.45,-144.29 3793.5,-144 3600.15,-125.23 3369.53,-103.99 3273.25,-95.18"/>
<polygon fill="grey" stroke="grey" stroke-width="2" points="3273.54,-91.69 3263.27,-94.26 3272.91,-98.66 3273.54,-91.69"/>
</g>
<!-- 10 -->
<g id="node11" class="node">
<title>10</title>
<path fill="none" stroke="#5682d8" stroke-width="2" stroke-dasharray="5,2" d="M4507,-185C4507,-185 4202,-185 4202,-185 4196,-185 4190,-179 4190,-173 4190,-173 4190,-156 4190,-156 4190,-150 4196,-144 4202,-144 4202,-144 4507,-144 4507,-144 4513,-144 4519,-150 4519,-156 4519,-156 4519,-173 4519,-173 4519,-179 4513,-185 4507,-185"/>
<text text-anchor="middle" x="4354.5" y="-173" font-family="sans" font-size="10.00">fastqc_raw</text>
<text text-anchor="middle" x="4354.5" y="-162" font-family="sans" font-size="10.00">r: 1</text>
<text text-anchor="middle" x="4354.5" y="-151" font-family="sans" font-size="10.00">read: Collibri_standard_protocol&#45;HBR&#45;Collibri&#45;100_ng&#45;2_S1_L001</text>
</g>
<!-- 10&#45;&gt;1 -->
<g id="edge19" class="edge">
<title>10&#45;&gt;1</title>
<path fill="none" stroke="grey" stroke-width="2" d="M4189.7,-144.71C4186.94,-144.46 4184.21,-144.23 4181.5,-144 3832.72,-114.68 3410.78,-97.69 3273.23,-92.62"/>
<polygon fill="grey" stroke="grey" stroke-width="2" points="3273.19,-89.12 3263.07,-92.25 3272.93,-96.11 3273.19,-89.12"/>
</g>
<!-- 11 -->
<g id="node12" class="node">
<title>11</title>
<path fill="none" stroke="#5682d8" stroke-width="2" stroke-dasharray="5,2" d="M4854,-185C4854,-185 4549,-185 4549,-185 4543,-185 4537,-179 4537,-173 4537,-173 4537,-156 4537,-156 4537,-150 4543,-144 4549,-144 4549,-144 4854,-144 4854,-144 4860,-144 4866,-150 4866,-156 4866,-156 4866,-173 4866,-173 4866,-179 4860,-185 4854,-185"/>
<text text-anchor="middle" x="4701.5" y="-173" font-family="sans" font-size="10.00">fastqc_raw</text>
<text text-anchor="middle" x="4701.5" y="-162" font-family="sans" font-size="10.00">r: 2</text>
<text text-anchor="middle" x="4701.5" y="-151" font-family="sans" font-size="10.00">read: Collibri_standard_protocol&#45;HBR&#45;Collibri&#45;100_ng&#45;2_S1_L001</text>
</g>
<!-- 11&#45;&gt;1 -->
<g id="edge20" class="edge">
<title>11&#45;&gt;1</title>
<path fill="none" stroke="grey" stroke-width="2" d="M4536.67,-144.73C4533.59,-144.47 4530.53,-144.23 4527.5,-144 4037.44,-106.6 3441.31,-94.49 3273.43,-91.7"/>
<polygon fill="grey" stroke="grey" stroke-width="2" points="3273.28,-88.19 3263.23,-91.53 3273.17,-95.19 3273.28,-88.19"/>
</g>
<!-- 12 -->
<g id="node13" class="node">
<title>12</title>
<path fill="none" stroke="#5682d8" stroke-width="2" stroke-dasharray="5,2" d="M5209,-185C5209,-185 4896,-185 4896,-185 4890,-185 4884,-179 4884,-173 4884,-173 4884,-156 4884,-156 4884,-150 4890,-144 4896,-144 4896,-144 5209,-144 5209,-144 5215,-144 5221,-150 5221,-156 5221,-156 5221,-173 5221,-173 5221,-179 5215,-185 5209,-185"/>
<text text-anchor="middle" x="5052.5" y="-173" font-family="sans" font-size="10.00">fastqc_raw</text>
<text text-anchor="middle" x="5052.5" y="-162" font-family="sans" font-size="10.00">r: 1</text>
<text text-anchor="middle" x="5052.5" y="-151" font-family="sans" font-size="10.00">read: Collibri_standard_protocol&#45;UHRR&#45;Collibri&#45;100_ng&#45;2_S3_L001</text>
</g>
<!-- 12&#45;&gt;1 -->
<g id="edge21" class="edge">
<title>12&#45;&gt;1</title>
<path fill="none" stroke="grey" stroke-width="2" d="M4883.88,-144.69C4880.73,-144.45 4877.6,-144.22 4874.5,-144 4240.86,-99.16 3467.38,-92.23 3273.31,-91.18"/>
<polygon fill="grey" stroke="grey" stroke-width="2" points="3273.21,-87.68 3263.19,-91.13 3273.17,-94.68 3273.21,-87.68"/>
</g>
<!-- 13 -->
<g id="node14" class="node">
<title>13</title>
<path fill="none" stroke="#5682d8" stroke-width="2" stroke-dasharray="5,2" d="M5564,-185C5564,-185 5251,-185 5251,-185 5245,-185 5239,-179 5239,-173 5239,-173 5239,-156 5239,-156 5239,-150 5245,-144 5251,-144 5251,-144 5564,-144 5564,-144 5570,-144 5576,-150 5576,-156 5576,-156 5576,-173 5576,-173 5576,-179 5570,-185 5564,-185"/>
<text text-anchor="middle" x="5407.5" y="-173" font-family="sans" font-size="10.00">fastqc_raw</text>
<text text-anchor="middle" x="5407.5" y="-162" font-family="sans" font-size="10.00">r: 2</text>
<text text-anchor="middle" x="5407.5" y="-151" font-family="sans" font-size="10.00">read: Collibri_standard_protocol&#45;UHRR&#45;Collibri&#45;100_ng&#45;2_S3_L001</text>
</g>
<!-- 13&#45;&gt;1 -->
<g id="edge22" class="edge">
<title>13&#45;&gt;1</title>
<path fill="none" stroke="grey" stroke-width="2" d="M5238.89,-144.67C5235.73,-144.43 5232.6,-144.21 5229.5,-144 4447.92,-90.93 3491.34,-90.22 3273.22,-90.81"/>
<polygon fill="grey" stroke="grey" stroke-width="2" points="3273.09,-87.31 3263.1,-90.84 3273.11,-94.31 3273.09,-87.31"/>
</g>
<!-- 14 -->
<g id="node15" class="node">
<title>14</title>
<path fill="none" stroke="#5682d8" stroke-width="2" stroke-dasharray="5,2" d="M5911,-185C5911,-185 5606,-185 5606,-185 5600,-185 5594,-179 5594,-173 5594,-173 5594,-156 5594,-156 5594,-150 5600,-144 5606,-144 5606,-144 5911,-144 5911,-144 5917,-144 5923,-150 5923,-156 5923,-156 5923,-173 5923,-173 5923,-179 5917,-185 5911,-185"/>
<text text-anchor="middle" x="5758.5" y="-173" font-family="sans" font-size="10.00">fastqc_raw</text>
<text text-anchor="middle" x="5758.5" y="-162" font-family="sans" font-size="10.00">r: 1</text>
<text text-anchor="middle" x="5758.5" y="-151" font-family="sans" font-size="10.00">read: Collibri_standard_protocol&#45;HBR&#45;Collibri&#45;100_ng&#45;3_S2_L001</text>
</g>
<!-- 14&#45;&gt;1 -->
<g id="edge23" class="edge">
<title>14&#45;&gt;1</title>
<path fill="none" stroke="grey" stroke-width="2" d="M5593.68,-144.65C5590.59,-144.42 5587.53,-144.2 5584.5,-144 5110.76,-112.19 3559.79,-94.51 3273.24,-91.47"/>
<polygon fill="grey" stroke="grey" stroke-width="2" points="3273.24,-87.97 3263.2,-91.37 3273.17,-94.97 3273.24,-87.97"/>
</g>
<!-- 15 -->
<g id="node16" class="node">
<title>15</title>
<path fill="none" stroke="#5682d8" stroke-width="2" stroke-dasharray="5,2" d="M317,-185C317,-185 12,-185 12,-185 6,-185 0,-179 0,-173 0,-173 0,-156 0,-156 0,-150 6,-144 12,-144 12,-144 317,-144 317,-144 323,-144 329,-150 329,-156 329,-156 329,-173 329,-173 329,-179 323,-185 317,-185"/>
<text text-anchor="middle" x="164.5" y="-173" font-family="sans" font-size="10.00">fastqc_raw</text>
<text text-anchor="middle" x="164.5" y="-162" font-family="sans" font-size="10.00">r: 2</text>
<text text-anchor="middle" x="164.5" y="-151" font-family="sans" font-size="10.00">read: Collibri_standard_protocol&#45;HBR&#45;Collibri&#45;100_ng&#45;3_S2_L001</text>
</g>
<!-- 15&#45;&gt;1 -->
<g id="edge24" class="edge">
<title>15&#45;&gt;1</title>
<path fill="none" stroke="grey" stroke-width="2" d="M329.29,-144.57C332.05,-144.37 334.79,-144.18 337.5,-144 924.23,-105.64 2858.41,-93.1 3181.53,-91.25"/>
<polygon fill="grey" stroke="grey" stroke-width="2" points="3181.93,-94.75 3191.91,-91.19 3181.89,-87.75 3181.93,-94.75"/>
</g>
<!-- 16 -->
<g id="node17" class="node">
<title>16</title>
<path fill="none" stroke="#5682d8" stroke-width="2" stroke-dasharray="5,2" d="M712,-185C712,-185 359,-185 359,-185 353,-185 347,-179 347,-173 347,-173 347,-156 347,-156 347,-150 353,-144 359,-144 359,-144 712,-144 712,-144 718,-144 724,-150 724,-156 724,-156 724,-173 724,-173 724,-179 718,-185 712,-185"/>
<text text-anchor="middle" x="535.5" y="-173" font-family="sans" font-size="10.00">fastqc_raw</text>
<text text-anchor="middle" x="535.5" y="-162" font-family="sans" font-size="10.00">r: 1</text>
<text text-anchor="middle" x="535.5" y="-151" font-family="sans" font-size="10.00">read: KAPA_mRNA_HyperPrep_&#45;UHRR&#45;KAPA&#45;100_ng_total_RNA&#45;3_S8_L001</text>
</g>
<!-- 16&#45;&gt;1 -->
<g id="edge25" class="edge">
<title>16&#45;&gt;1</title>
<path fill="none" stroke="grey" stroke-width="2" d="M724.21,-144.52C726.99,-144.34 729.76,-144.16 732.5,-144 1235.53,-113.81 2884.54,-94.72 3181.48,-91.49"/>
<polygon fill="grey" stroke="grey" stroke-width="2" points="3181.9,-94.99 3191.86,-91.38 3181.82,-87.99 3181.9,-94.99"/>
</g>
<!-- 17 -->
<g id="node18" class="node">
<title>17</title>
<path fill="none" stroke="#5682d8" stroke-width="2" stroke-dasharray="5,2" d="M1107,-185C1107,-185 754,-185 754,-185 748,-185 742,-179 742,-173 742,-173 742,-156 742,-156 742,-150 748,-144 754,-144 754,-144 1107,-144 1107,-144 1113,-144 1119,-150 1119,-156 1119,-156 1119,-173 1119,-173 1119,-179 1113,-185 1107,-185"/>
<text text-anchor="middle" x="930.5" y="-173" font-family="sans" font-size="10.00">fastqc_raw</text>
<text text-anchor="middle" x="930.5" y="-162" font-family="sans" font-size="10.00">r: 2</text>
<text text-anchor="middle" x="930.5" y="-151" font-family="sans" font-size="10.00">read: KAPA_mRNA_HyperPrep_&#45;UHRR&#45;KAPA&#45;100_ng_total_RNA&#45;3_S8_L001</text>
</g>
<!-- 17&#45;&gt;1 -->
<g id="edge26" class="edge">
<title>17&#45;&gt;1</title>
<path fill="none" stroke="grey" stroke-width="2" d="M1119.21,-144.54C1121.99,-144.35 1124.76,-144.17 1127.5,-144 1950.27,-92.97 2957.29,-90.73 3181.74,-90.91"/>
<polygon fill="grey" stroke="grey" stroke-width="2" points="3181.83,-94.41 3191.84,-90.92 3181.84,-87.41 3181.83,-94.41"/>
</g>
<!-- 18 -->
<g id="node19" class="node">
<title>18</title>
<path fill="none" stroke="#56d8c9" stroke-width="2" stroke-dasharray="5,2" d="M7693,-182.5C7693,-182.5 7640,-182.5 7640,-182.5 7634,-182.5 7628,-176.5 7628,-170.5 7628,-170.5 7628,-158.5 7628,-158.5 7628,-152.5 7634,-146.5 7640,-146.5 7640,-146.5 7693,-146.5 7693,-146.5 7699,-146.5 7705,-152.5 7705,-158.5 7705,-158.5 7705,-170.5 7705,-170.5 7705,-176.5 7699,-182.5 7693,-182.5"/>
<text text-anchor="middle" x="7666.5" y="-162" font-family="sans" font-size="10.00">multiqc_dir1</text>
</g>
<!-- 18&#45;&gt;0 -->
<g id="edge2" class="edge">
<title>18&#45;&gt;0</title>
<path fill="none" stroke="grey" stroke-width="2" d="M7700.12,-146.5C7743.59,-125.33 7822.18,-89.81 7893.5,-72 8061.63,-30.02 8269.9,-21.28 8353.36,-19.47"/>
<polygon fill="grey" stroke="grey" stroke-width="2" points="8353.45,-22.97 8363.38,-19.27 8353.31,-15.97 8353.45,-22.97"/>
</g>
<!-- 19 -->
<g id="node20" class="node">
<title>19</title>
<path fill="none" stroke="#56d86b" stroke-width="2" stroke-dasharray="5,2" d="M6759.5,-257C6759.5,-257 6689.5,-257 6689.5,-257 6683.5,-257 6677.5,-251 6677.5,-245 6677.5,-245 6677.5,-233 6677.5,-233 6677.5,-227 6683.5,-221 6689.5,-221 6689.5,-221 6759.5,-221 6759.5,-221 6765.5,-221 6771.5,-227 6771.5,-233 6771.5,-233 6771.5,-245 6771.5,-245 6771.5,-251 6765.5,-257 6759.5,-257"/>
<text text-anchor="middle" x="6724.5" y="-236.5" font-family="sans" font-size="10.00">fastqc_trimmed</text>
</g>
<!-- 19&#45;&gt;18 -->
<g id="edge27" class="edge">
<title>19&#45;&gt;18</title>
<path fill="none" stroke="grey" stroke-width="2" d="M6771.54,-234.38C6931.68,-222.05 7454.78,-181.79 7617.64,-169.26"/>
<polygon fill="grey" stroke="grey" stroke-width="2" points="7618.14,-172.73 7627.84,-168.48 7617.6,-165.75 7618.14,-172.73"/>
</g>
<!-- 20 -->
<g id="node21" class="node">
<title>20</title>
<path fill="none" stroke="#70d856" stroke-width="2" stroke-dasharray="5,2" d="M6770,-329C6770,-329 6417,-329 6417,-329 6411,-329 6405,-323 6405,-317 6405,-317 6405,-305 6405,-305 6405,-299 6411,-293 6417,-293 6417,-293 6770,-293 6770,-293 6776,-293 6782,-299 6782,-305 6782,-305 6782,-317 6782,-317 6782,-323 6776,-329 6770,-329"/>
<text text-anchor="middle" x="6593.5" y="-314" font-family="sans" font-size="10.00">bbduk_pe</text>
<text text-anchor="middle" x="6593.5" y="-303" font-family="sans" font-size="10.00">read: KAPA_mRNA_HyperPrep_&#45;UHRR&#45;KAPA&#45;100_ng_total_RNA&#45;2_S7_L001</text>
</g>
<!-- 20&#45;&gt;19 -->
<g id="edge35" class="edge">
<title>20&#45;&gt;19</title>
<path fill="none" stroke="grey" stroke-width="2" d="M6625.55,-292.88C6642.99,-283.55 6664.77,-271.92 6683.44,-261.94"/>
<polygon fill="grey" stroke="grey" stroke-width="2" points="6685.16,-264.99 6692.33,-257.19 6681.86,-258.82 6685.16,-264.99"/>
</g>
<!-- 36 -->
<g id="node37" class="node">
<title>36</title>
<path fill="none" stroke="#d85656" stroke-width="2" stroke-dasharray="5,2" d="M8183.5,-257C8183.5,-257 8153.5,-257 8153.5,-257 8147.5,-257 8141.5,-251 8141.5,-245 8141.5,-245 8141.5,-233 8141.5,-233 8141.5,-227 8147.5,-221 8153.5,-221 8153.5,-221 8183.5,-221 8183.5,-221 8189.5,-221 8195.5,-227 8195.5,-233 8195.5,-233 8195.5,-245 8195.5,-245 8195.5,-251 8189.5,-257 8183.5,-257"/>
<text text-anchor="middle" x="8168.5" y="-236.5" font-family="sans" font-size="10.00">star_pe</text>
</g>
<!-- 20&#45;&gt;36 -->
<g id="edge46" class="edge">
<title>20&#45;&gt;36</title>
<path fill="none" stroke="grey" stroke-width="2" d="M6782.22,-293.49C6785,-293.32 6787.76,-293.15 6790.5,-293 6939.32,-284.59 7986.33,-290.8 8131.5,-257 8131.6,-256.98 8131.71,-256.95 8131.81,-256.93"/>
<polygon fill="grey" stroke="grey" stroke-width="2" points="8132.96,-260.23 8141.46,-253.91 8130.87,-253.55 8132.96,-260.23"/>
</g>
<!-- 21 -->
<g id="node22" class="node">
<title>21</title>
<path fill="none" stroke="#56d86b" stroke-width="2" stroke-dasharray="5,2" d="M6441.5,-257C6441.5,-257 6371.5,-257 6371.5,-257 6365.5,-257 6359.5,-251 6359.5,-245 6359.5,-245 6359.5,-233 6359.5,-233 6359.5,-227 6365.5,-221 6371.5,-221 6371.5,-221 6441.5,-221 6441.5,-221 6447.5,-221 6453.5,-227 6453.5,-233 6453.5,-233 6453.5,-245 6453.5,-245 6453.5,-251 6447.5,-257 6441.5,-257"/>
<text text-anchor="middle" x="6406.5" y="-236.5" font-family="sans" font-size="10.00">fastqc_trimmed</text>
</g>
<!-- 21&#45;&gt;18 -->
<g id="edge28" class="edge">
<title>21&#45;&gt;18</title>
<path fill="none" stroke="grey" stroke-width="2" d="M6453.82,-234.8C6506.29,-231.28 6593.43,-225.52 6668.5,-221 7033.09,-199.03 7472.81,-175.67 7617.65,-168.06"/>
<polygon fill="grey" stroke="grey" stroke-width="2" points="7618.16,-171.53 7627.96,-167.51 7617.79,-164.54 7618.16,-171.53"/>
</g>
<!-- 22 -->
<g id="node23" class="node">
<title>22</title>
<path fill="none" stroke="#70d856" stroke-width="2" stroke-dasharray="5,2" d="M6374.5,-329C6374.5,-329 6028.5,-329 6028.5,-329 6022.5,-329 6016.5,-323 6016.5,-317 6016.5,-317 6016.5,-305 6016.5,-305 6016.5,-299 6022.5,-293 6028.5,-293 6028.5,-293 6374.5,-293 6374.5,-293 6380.5,-293 6386.5,-299 6386.5,-305 6386.5,-305 6386.5,-317 6386.5,-317 6386.5,-323 6380.5,-329 6374.5,-329"/>
<text text-anchor="middle" x="6201.5" y="-314" font-family="sans" font-size="10.00">bbduk_pe</text>
<text text-anchor="middle" x="6201.5" y="-303" font-family="sans" font-size="10.00">read: KAPA_mRNA_HyperPrep_&#45;HBR&#45;KAPA&#45;100_ng_total_RNA&#45;2_S5_L001</text>
</g>
<!-- 22&#45;&gt;21 -->
<g id="edge36" class="edge">
<title>22&#45;&gt;21</title>
<path fill="none" stroke="grey" stroke-width="2" d="M6251.39,-292.97C6281.01,-282.85 6318.68,-269.99 6349.47,-259.47"/>
<polygon fill="grey" stroke="grey" stroke-width="2" points="6350.88,-262.69 6359.21,-256.15 6348.62,-256.07 6350.88,-262.69"/>
</g>
<!-- 41 -->
<g id="node42" class="node">
<title>41</title>
<path fill="none" stroke="#d85656" stroke-width="2" stroke-dasharray="5,2" d="M7997.5,-257C7997.5,-257 7967.5,-257 7967.5,-257 7961.5,-257 7955.5,-251 7955.5,-245 7955.5,-245 7955.5,-233 7955.5,-233 7955.5,-227 7961.5,-221 7967.5,-221 7967.5,-221 7997.5,-221 7997.5,-221 8003.5,-221 8009.5,-227 8009.5,-233 8009.5,-233 8009.5,-245 8009.5,-245 8009.5,-251 8003.5,-257 7997.5,-257"/>
<text text-anchor="middle" x="7982.5" y="-236.5" font-family="sans" font-size="10.00">star_pe</text>
</g>
<!-- 22&#45;&gt;41 -->
<g id="edge53" class="edge">
<title>22&#45;&gt;41</title>
<path fill="none" stroke="grey" stroke-width="2" d="M6386.57,-293.52C6389.57,-293.34 6392.55,-293.16 6395.5,-293 6564.67,-283.63 7737.65,-296.22 7945.46,-256.35"/>
<polygon fill="grey" stroke="grey" stroke-width="2" points="7946.37,-259.74 7955.41,-254.23 7944.9,-252.89 7946.37,-259.74"/>
</g>
<!-- 23 -->
<g id="node24" class="node">
<title>23</title>
<path fill="none" stroke="#56d86b" stroke-width="2" stroke-dasharray="5,2" d="M7122.5,-257C7122.5,-257 7052.5,-257 7052.5,-257 7046.5,-257 7040.5,-251 7040.5,-245 7040.5,-245 7040.5,-233 7040.5,-233 7040.5,-227 7046.5,-221 7052.5,-221 7052.5,-221 7122.5,-221 7122.5,-221 7128.5,-221 7134.5,-227 7134.5,-233 7134.5,-233 7134.5,-245 7134.5,-245 7134.5,-251 7128.5,-257 7122.5,-257"/>
<text text-anchor="middle" x="7087.5" y="-236.5" font-family="sans" font-size="10.00">fastqc_trimmed</text>
</g>
<!-- 23&#45;&gt;18 -->
<g id="edge29" class="edge">
<title>23&#45;&gt;18</title>
<path fill="none" stroke="grey" stroke-width="2" d="M7134.88,-232.07C7243.2,-218.5 7508.02,-185.34 7617.7,-171.61"/>
<polygon fill="grey" stroke="grey" stroke-width="2" points="7618.33,-175.06 7627.82,-170.34 7617.46,-168.11 7618.33,-175.06"/>
</g>
<!-- 24 -->
<g id="node25" class="node">
<title>24</title>
<path fill="none" stroke="#70d856" stroke-width="2" stroke-dasharray="5,2" d="M7125,-329C7125,-329 6812,-329 6812,-329 6806,-329 6800,-323 6800,-317 6800,-317 6800,-305 6800,-305 6800,-299 6806,-293 6812,-293 6812,-293 7125,-293 7125,-293 7131,-293 7137,-299 7137,-305 7137,-305 7137,-317 7137,-317 7137,-323 7131,-329 7125,-329"/>
<text text-anchor="middle" x="6968.5" y="-314" font-family="sans" font-size="10.00">bbduk_pe</text>
<text text-anchor="middle" x="6968.5" y="-303" font-family="sans" font-size="10.00">read: Collibri_standard_protocol&#45;UHRR&#45;Collibri&#45;100_ng&#45;3_S4_L001</text>
</g>
<!-- 24&#45;&gt;23 -->
<g id="edge37" class="edge">
<title>24&#45;&gt;23</title>
<path fill="none" stroke="grey" stroke-width="2" d="M6997.61,-292.88C7013.17,-283.72 7032.52,-272.34 7049.28,-262.48"/>
<polygon fill="grey" stroke="grey" stroke-width="2" points="7051.43,-265.28 7058.28,-257.19 7047.88,-259.24 7051.43,-265.28"/>
</g>
<!-- 44 -->
<g id="node45" class="node">
<title>44</title>
<path fill="none" stroke="#d85656" stroke-width="2" stroke-dasharray="5,2" d="M8288.5,-257C8288.5,-257 8258.5,-257 8258.5,-257 8252.5,-257 8246.5,-251 8246.5,-245 8246.5,-245 8246.5,-233 8246.5,-233 8246.5,-227 8252.5,-221 8258.5,-221 8258.5,-221 8288.5,-221 8288.5,-221 8294.5,-221 8300.5,-227 8300.5,-233 8300.5,-233 8300.5,-245 8300.5,-245 8300.5,-251 8294.5,-257 8288.5,-257"/>
<text text-anchor="middle" x="8273.5" y="-236.5" font-family="sans" font-size="10.00">star_pe</text>
</g>
<!-- 24&#45;&gt;44 -->
<g id="edge59" class="edge">
<title>24&#45;&gt;44</title>
<path fill="none" stroke="grey" stroke-width="2" d="M7137.12,-293.56C7139.93,-293.37 7142.73,-293.18 7145.5,-293 7615.45,-262.47 7738.02,-321.68 8204.5,-257 8214.95,-255.55 8226.11,-253.17 8236.35,-250.65"/>
<polygon fill="grey" stroke="grey" stroke-width="2" points="8237.41,-253.99 8246.22,-248.11 8235.66,-247.21 8237.41,-253.99"/>
</g>
<!-- 25 -->
<g id="node26" class="node">
<title>25</title>
<path fill="none" stroke="#56d86b" stroke-width="2" stroke-dasharray="5,2" d="M8110.5,-257C8110.5,-257 8040.5,-257 8040.5,-257 8034.5,-257 8028.5,-251 8028.5,-245 8028.5,-245 8028.5,-233 8028.5,-233 8028.5,-227 8034.5,-221 8040.5,-221 8040.5,-221 8110.5,-221 8110.5,-221 8116.5,-221 8122.5,-227 8122.5,-233 8122.5,-233 8122.5,-245 8122.5,-245 8122.5,-251 8116.5,-257 8110.5,-257"/>
<text text-anchor="middle" x="8075.5" y="-236.5" font-family="sans" font-size="10.00">fastqc_trimmed</text>
</g>
<!-- 25&#45;&gt;18 -->
<g id="edge30" class="edge">
<title>25&#45;&gt;18</title>
<path fill="none" stroke="grey" stroke-width="2" d="M8028.35,-223.41C8025.03,-222.55 8021.72,-221.73 8018.5,-221 7911.33,-196.68 7783.41,-179.39 7715.14,-171.08"/>
<polygon fill="grey" stroke="grey" stroke-width="2" points="7715.45,-167.6 7705.1,-169.87 7714.61,-174.55 7715.45,-167.6"/>
</g>
<!-- 26 -->
<g id="node27" class="node">
<title>26</title>
<path fill="none" stroke="#70d856" stroke-width="2" stroke-dasharray="5,2" d="M9157.5,-329C9157.5,-329 8811.5,-329 8811.5,-329 8805.5,-329 8799.5,-323 8799.5,-317 8799.5,-317 8799.5,-305 8799.5,-305 8799.5,-299 8805.5,-293 8811.5,-293 8811.5,-293 9157.5,-293 9157.5,-293 9163.5,-293 9169.5,-299 9169.5,-305 9169.5,-305 9169.5,-317 9169.5,-317 9169.5,-323 9163.5,-329 9157.5,-329"/>
<text text-anchor="middle" x="8984.5" y="-314" font-family="sans" font-size="10.00">bbduk_pe</text>
<text text-anchor="middle" x="8984.5" y="-303" font-family="sans" font-size="10.00">read: KAPA_mRNA_HyperPrep_&#45;HBR&#45;KAPA&#45;100_ng_total_RNA&#45;3_S6_L001</text>
</g>
<!-- 26&#45;&gt;25 -->
<g id="edge38" class="edge">
<title>26&#45;&gt;25</title>
<path fill="none" stroke="grey" stroke-width="2" d="M8799.32,-298.31C8770.91,-296.53 8741.92,-294.71 8714.5,-293 8455.84,-276.86 8387.67,-302.33 8132.5,-257 8132.4,-256.98 8132.3,-256.96 8132.19,-256.95"/>
<polygon fill="grey" stroke="grey" stroke-width="2" points="8133.08,-253.56 8122.58,-254.94 8131.65,-260.41 8133.08,-253.56"/>
</g>
<!-- 47 -->
<g id="node48" class="node">
<title>47</title>
<path fill="none" stroke="#d85656" stroke-width="2" stroke-dasharray="5,2" d="M9127.5,-257C9127.5,-257 9097.5,-257 9097.5,-257 9091.5,-257 9085.5,-251 9085.5,-245 9085.5,-245 9085.5,-233 9085.5,-233 9085.5,-227 9091.5,-221 9097.5,-221 9097.5,-221 9127.5,-221 9127.5,-221 9133.5,-221 9139.5,-227 9139.5,-233 9139.5,-233 9139.5,-245 9139.5,-245 9139.5,-251 9133.5,-257 9127.5,-257"/>
<text text-anchor="middle" x="9112.5" y="-236.5" font-family="sans" font-size="10.00">star_pe</text>
</g>
<!-- 26&#45;&gt;47 -->
<g id="edge65" class="edge">
<title>26&#45;&gt;47</title>
<path fill="none" stroke="grey" stroke-width="2" d="M9015.81,-292.88C9034.13,-282.86 9057.33,-270.17 9076.42,-259.73"/>
<polygon fill="grey" stroke="grey" stroke-width="2" points="9078.32,-262.68 9085.41,-254.81 9074.96,-256.54 9078.32,-262.68"/>
</g>
<!-- 27 -->
<g id="node28" class="node">
<title>27</title>
<path fill="none" stroke="#56d86b" stroke-width="2" stroke-dasharray="5,2" d="M7701.5,-257C7701.5,-257 7631.5,-257 7631.5,-257 7625.5,-257 7619.5,-251 7619.5,-245 7619.5,-245 7619.5,-233 7619.5,-233 7619.5,-227 7625.5,-221 7631.5,-221 7631.5,-221 7701.5,-221 7701.5,-221 7707.5,-221 7713.5,-227 7713.5,-233 7713.5,-233 7713.5,-245 7713.5,-245 7713.5,-251 7707.5,-257 7701.5,-257"/>
<text text-anchor="middle" x="7666.5" y="-236.5" font-family="sans" font-size="10.00">fastqc_trimmed</text>
</g>
<!-- 27&#45;&gt;18 -->
<g id="edge31" class="edge">
<title>27&#45;&gt;18</title>
<path fill="none" stroke="grey" stroke-width="2" d="M7666.5,-220.82C7666.5,-212.42 7666.5,-202.12 7666.5,-192.69"/>
<polygon fill="grey" stroke="grey" stroke-width="2" points="7670,-192.56 7666.5,-182.56 7663,-192.56 7670,-192.56"/>
</g>
<!-- 28 -->
<g id="node29" class="node">
<title>28</title>
<path fill="none" stroke="#70d856" stroke-width="2" stroke-dasharray="5,2" d="M7819,-329C7819,-329 7514,-329 7514,-329 7508,-329 7502,-323 7502,-317 7502,-317 7502,-305 7502,-305 7502,-299 7508,-293 7514,-293 7514,-293 7819,-293 7819,-293 7825,-293 7831,-299 7831,-305 7831,-305 7831,-317 7831,-317 7831,-323 7825,-329 7819,-329"/>
<text text-anchor="middle" x="7666.5" y="-314" font-family="sans" font-size="10.00">bbduk_pe</text>
<text text-anchor="middle" x="7666.5" y="-303" font-family="sans" font-size="10.00">read: Collibri_standard_protocol&#45;HBR&#45;Collibri&#45;100_ng&#45;2_S1_L001</text>
</g>
<!-- 28&#45;&gt;27 -->
<g id="edge39" class="edge">
<title>28&#45;&gt;27</title>
<path fill="none" stroke="grey" stroke-width="2" d="M7666.5,-292.7C7666.5,-284.98 7666.5,-275.71 7666.5,-267.11"/>
<polygon fill="grey" stroke="grey" stroke-width="2" points="7670,-267.1 7666.5,-257.1 7663,-267.1 7670,-267.1"/>
</g>
<!-- 50 -->
<g id="node51" class="node">
<title>50</title>
<path fill="none" stroke="#d85656" stroke-width="2" stroke-dasharray="5,2" d="M8607.5,-257C8607.5,-257 8577.5,-257 8577.5,-257 8571.5,-257 8565.5,-251 8565.5,-245 8565.5,-245 8565.5,-233 8565.5,-233 8565.5,-227 8571.5,-221 8577.5,-221 8577.5,-221 8607.5,-221 8607.5,-221 8613.5,-221 8619.5,-227 8619.5,-233 8619.5,-233 8619.5,-245 8619.5,-245 8619.5,-251 8613.5,-257 8607.5,-257"/>
<text text-anchor="middle" x="8592.5" y="-236.5" font-family="sans" font-size="10.00">star_pe</text>
</g>
<!-- 28&#45;&gt;50 -->
<g id="edge71" class="edge">
<title>28&#45;&gt;50</title>
<path fill="none" stroke="grey" stroke-width="2" d="M7831.31,-293.65C7834.06,-293.43 7836.79,-293.21 7839.5,-293 8122.66,-271.11 8194.96,-285.8 8477.5,-257 8503.5,-254.35 8532.62,-250.03 8555.05,-246.41"/>
<polygon fill="grey" stroke="grey" stroke-width="2" points="8555.87,-249.82 8565.17,-244.75 8554.73,-242.92 8555.87,-249.82"/>
</g>
<!-- 29 -->
<g id="node30" class="node">
<title>29</title>
<path fill="none" stroke="#56d86b" stroke-width="2" stroke-dasharray="5,2" d="M7925.5,-257C7925.5,-257 7855.5,-257 7855.5,-257 7849.5,-257 7843.5,-251 7843.5,-245 7843.5,-245 7843.5,-233 7843.5,-233 7843.5,-227 7849.5,-221 7855.5,-221 7855.5,-221 7925.5,-221 7925.5,-221 7931.5,-221 7937.5,-227 7937.5,-233 7937.5,-233 7937.5,-245 7937.5,-245 7937.5,-251 7931.5,-257 7925.5,-257"/>
<text text-anchor="middle" x="7890.5" y="-236.5" font-family="sans" font-size="10.00">fastqc_trimmed</text>
</g>
<!-- 29&#45;&gt;18 -->
<g id="edge32" class="edge">
<title>29&#45;&gt;18</title>
<path fill="none" stroke="grey" stroke-width="2" d="M7843.27,-222.71C7805.56,-210.51 7752.94,-193.48 7714.92,-181.17"/>
<polygon fill="grey" stroke="grey" stroke-width="2" points="7715.69,-177.74 7705.1,-177.99 7713.54,-184.4 7715.69,-177.74"/>
</g>
<!-- 30 -->
<g id="node31" class="node">
<title>30</title>
<path fill="none" stroke="#70d856" stroke-width="2" stroke-dasharray="5,2" d="M8569,-329C8569,-329 8256,-329 8256,-329 8250,-329 8244,-323 8244,-317 8244,-317 8244,-305 8244,-305 8244,-299 8250,-293 8256,-293 8256,-293 8569,-293 8569,-293 8575,-293 8581,-299 8581,-305 8581,-305 8581,-317 8581,-317 8581,-323 8575,-329 8569,-329"/>
<text text-anchor="middle" x="8412.5" y="-314" font-family="sans" font-size="10.00">bbduk_pe</text>
<text text-anchor="middle" x="8412.5" y="-303" font-family="sans" font-size="10.00">read: Collibri_standard_protocol&#45;UHRR&#45;Collibri&#45;100_ng&#45;2_S3_L001</text>
</g>
<!-- 30&#45;&gt;29 -->
<g id="edge40" class="edge">
<title>30&#45;&gt;29</title>
<path fill="none" stroke="grey" stroke-width="2" d="M8250.04,-292.99C8136.5,-280.86 7997.81,-265.52 7947.74,-256.88"/>
<polygon fill="grey" stroke="grey" stroke-width="2" points="7948.18,-253.4 7937.7,-254.99 7946.88,-260.28 7948.18,-253.4"/>
</g>
<!-- 53 -->
<g id="node54" class="node">
<title>53</title>
<path fill="none" stroke="#d85656" stroke-width="2" stroke-dasharray="5,2" d="M9006.5,-257C9006.5,-257 8976.5,-257 8976.5,-257 8970.5,-257 8964.5,-251 8964.5,-245 8964.5,-245 8964.5,-233 8964.5,-233 8964.5,-227 8970.5,-221 8976.5,-221 8976.5,-221 9006.5,-221 9006.5,-221 9012.5,-221 9018.5,-227 9018.5,-233 9018.5,-233 9018.5,-245 9018.5,-245 9018.5,-251 9012.5,-257 9006.5,-257"/>
<text text-anchor="middle" x="8991.5" y="-236.5" font-family="sans" font-size="10.00">star_pe</text>
</g>
<!-- 30&#45;&gt;53 -->
<g id="edge77" class="edge">
<title>30&#45;&gt;53</title>
<path fill="none" stroke="grey" stroke-width="2" d="M8553.4,-292.97C8685.87,-276.95 8875.28,-254.05 8954.48,-244.48"/>
<polygon fill="grey" stroke="grey" stroke-width="2" points="8954.96,-247.94 8964.46,-243.27 8954.12,-240.99 8954.96,-247.94"/>
</g>
<!-- 31 -->
<g id="node32" class="node">
<title>31</title>
<path fill="none" stroke="#56d86b" stroke-width="2" stroke-dasharray="5,2" d="M7471.5,-257C7471.5,-257 7401.5,-257 7401.5,-257 7395.5,-257 7389.5,-251 7389.5,-245 7389.5,-245 7389.5,-233 7389.5,-233 7389.5,-227 7395.5,-221 7401.5,-221 7401.5,-221 7471.5,-221 7471.5,-221 7477.5,-221 7483.5,-227 7483.5,-233 7483.5,-233 7483.5,-245 7483.5,-245 7483.5,-251 7477.5,-257 7471.5,-257"/>
<text text-anchor="middle" x="7436.5" y="-236.5" font-family="sans" font-size="10.00">fastqc_trimmed</text>
</g>
<!-- 31&#45;&gt;18 -->
<g id="edge33" class="edge">
<title>31&#45;&gt;18</title>
<path fill="none" stroke="grey" stroke-width="2" d="M7483.6,-223.15C7522.85,-210.78 7578.55,-193.22 7618.15,-180.74"/>
<polygon fill="grey" stroke="grey" stroke-width="2" points="7619.37,-184.03 7627.85,-177.68 7617.26,-177.35 7619.37,-184.03"/>
</g>
<!-- 32 -->
<g id="node33" class="node">
<title>32</title>
<path fill="none" stroke="#70d856" stroke-width="2" stroke-dasharray="5,2" d="M7472,-329C7472,-329 7167,-329 7167,-329 7161,-329 7155,-323 7155,-317 7155,-317 7155,-305 7155,-305 7155,-299 7161,-293 7167,-293 7167,-293 7472,-293 7472,-293 7478,-293 7484,-299 7484,-305 7484,-305 7484,-317 7484,-317 7484,-323 7478,-329 7472,-329"/>
<text text-anchor="middle" x="7319.5" y="-314" font-family="sans" font-size="10.00">bbduk_pe</text>
<text text-anchor="middle" x="7319.5" y="-303" font-family="sans" font-size="10.00">read: Collibri_standard_protocol&#45;HBR&#45;Collibri&#45;100_ng&#45;3_S2_L001</text>
</g>
<!-- 32&#45;&gt;31 -->
<g id="edge41" class="edge">
<title>32&#45;&gt;31</title>
<path fill="none" stroke="grey" stroke-width="2" d="M7348.12,-292.88C7363.42,-283.72 7382.44,-272.34 7398.92,-262.48"/>
<polygon fill="grey" stroke="grey" stroke-width="2" points="7400.98,-265.33 7407.77,-257.19 7397.39,-259.32 7400.98,-265.33"/>
</g>
<!-- 56 -->
<g id="node57" class="node">
<title>56</title>
<path fill="none" stroke="#d85656" stroke-width="2" stroke-dasharray="5,2" d="M8456.5,-257C8456.5,-257 8426.5,-257 8426.5,-257 8420.5,-257 8414.5,-251 8414.5,-245 8414.5,-245 8414.5,-233 8414.5,-233 8414.5,-227 8420.5,-221 8426.5,-221 8426.5,-221 8456.5,-221 8456.5,-221 8462.5,-221 8468.5,-227 8468.5,-233 8468.5,-233 8468.5,-245 8468.5,-245 8468.5,-251 8462.5,-257 8456.5,-257"/>
<text text-anchor="middle" x="8441.5" y="-236.5" font-family="sans" font-size="10.00">star_pe</text>
</g>
<!-- 32&#45;&gt;56 -->
<g id="edge83" class="edge">
<title>32&#45;&gt;56</title>
<path fill="none" stroke="grey" stroke-width="2" d="M7484.31,-293.6C7487.06,-293.39 7489.79,-293.19 7492.5,-293 7855.05,-267.22 7947.38,-288.24 8309.5,-257 8341.61,-254.23 8377.92,-249.43 8404.31,-245.64"/>
<polygon fill="grey" stroke="grey" stroke-width="2" points="8404.88,-249.09 8414.27,-244.19 8403.87,-242.17 8404.88,-249.09"/>
</g>
<!-- 33 -->
<g id="node34" class="node">
<title>33</title>
<path fill="none" stroke="#56d86b" stroke-width="2" stroke-dasharray="5,2" d="M7813.5,-257C7813.5,-257 7743.5,-257 7743.5,-257 7737.5,-257 7731.5,-251 7731.5,-245 7731.5,-245 7731.5,-233 7731.5,-233 7731.5,-227 7737.5,-221 7743.5,-221 7743.5,-221 7813.5,-221 7813.5,-221 7819.5,-221 7825.5,-227 7825.5,-233 7825.5,-233 7825.5,-245 7825.5,-245 7825.5,-251 7819.5,-257 7813.5,-257"/>
<text text-anchor="middle" x="7778.5" y="-236.5" font-family="sans" font-size="10.00">fastqc_trimmed</text>
</g>
<!-- 33&#45;&gt;18 -->
<g id="edge34" class="edge">
<title>33&#45;&gt;18</title>
<path fill="none" stroke="grey" stroke-width="2" d="M7751.96,-220.82C7736.89,-211.07 7717.85,-198.74 7701.57,-188.2"/>
<polygon fill="grey" stroke="grey" stroke-width="2" points="7703.15,-185.05 7692.85,-182.56 7699.34,-190.93 7703.15,-185.05"/>
</g>
<!-- 34 -->
<g id="node35" class="node">
<title>34</title>
<path fill="none" stroke="#70d856" stroke-width="2" stroke-dasharray="5,2" d="M8214,-329C8214,-329 7861,-329 7861,-329 7855,-329 7849,-323 7849,-317 7849,-317 7849,-305 7849,-305 7849,-299 7855,-293 7861,-293 7861,-293 8214,-293 8214,-293 8220,-293 8226,-299 8226,-305 8226,-305 8226,-317 8226,-317 8226,-323 8220,-329 8214,-329"/>
<text text-anchor="middle" x="8037.5" y="-314" font-family="sans" font-size="10.00">bbduk_pe</text>
<text text-anchor="middle" x="8037.5" y="-303" font-family="sans" font-size="10.00">read: KAPA_mRNA_HyperPrep_&#45;UHRR&#45;KAPA&#45;100_ng_total_RNA&#45;3_S8_L001</text>
</g>
<!-- 34&#45;&gt;33 -->
<g id="edge42" class="edge">
<title>34&#45;&gt;33</title>
<path fill="none" stroke="grey" stroke-width="2" d="M7969.65,-293C7932.51,-283.52 7885.48,-271.26 7835.26,-257.17"/>
<polygon fill="grey" stroke="grey" stroke-width="2" points="7836.09,-253.76 7825.51,-254.42 7834.19,-260.5 7836.09,-253.76"/>
</g>
<!-- 59 -->
<g id="node60" class="node">
<title>59</title>
<path fill="none" stroke="#d85656" stroke-width="2" stroke-dasharray="5,2" d="M8729.5,-257C8729.5,-257 8699.5,-257 8699.5,-257 8693.5,-257 8687.5,-251 8687.5,-245 8687.5,-245 8687.5,-233 8687.5,-233 8687.5,-227 8693.5,-221 8699.5,-221 8699.5,-221 8729.5,-221 8729.5,-221 8735.5,-221 8741.5,-227 8741.5,-233 8741.5,-233 8741.5,-245 8741.5,-245 8741.5,-251 8735.5,-257 8729.5,-257"/>
<text text-anchor="middle" x="8714.5" y="-236.5" font-family="sans" font-size="10.00">star_pe</text>
</g>
<!-- 34&#45;&gt;59 -->
<g id="edge89" class="edge">
<title>34&#45;&gt;59</title>
<path fill="none" stroke="grey" stroke-width="2" d="M8226.11,-293.57C8391.43,-279.09 8608.52,-259.86 8628.5,-257 8644.54,-254.7 8662.1,-251.38 8677.16,-248.28"/>
<polygon fill="grey" stroke="grey" stroke-width="2" points="8678.06,-251.66 8687.13,-246.18 8676.62,-244.81 8678.06,-251.66"/>
</g>
<!-- 35 -->
<g id="node36" class="node">
<title>35</title>
<path fill="none" stroke="#ced856" stroke-width="2" stroke-dasharray="5,2" d="M8162.5,-108C8162.5,-108 8100.5,-108 8100.5,-108 8094.5,-108 8088.5,-102 8088.5,-96 8088.5,-96 8088.5,-84 8088.5,-84 8088.5,-78 8094.5,-72 8100.5,-72 8100.5,-72 8162.5,-72 8162.5,-72 8168.5,-72 8174.5,-78 8174.5,-84 8174.5,-84 8174.5,-96 8174.5,-96 8174.5,-102 8168.5,-108 8162.5,-108"/>
<text text-anchor="middle" x="8131.5" y="-87.5" font-family="sans" font-size="10.00">featureCounts</text>
</g>
<!-- 35&#45;&gt;0 -->
<g id="edge3" class="edge">
<title>35&#45;&gt;0</title>
<path fill="none" stroke="grey" stroke-width="2" d="M8174.56,-77.36C8224.55,-63.85 8306.15,-41.8 8353.43,-29.02"/>
<polygon fill="grey" stroke="grey" stroke-width="2" points="8354.52,-32.35 8363.26,-26.36 8352.69,-25.59 8354.52,-32.35"/>
</g>
<!-- 36&#45;&gt;35 -->
<g id="edge43" class="edge">
<title>36&#45;&gt;35</title>
<path fill="none" stroke="grey" stroke-width="2" d="M8166.03,-220.84C8163.11,-201.85 8157.73,-170.45 8150.5,-144 8148.16,-135.42 8145.08,-126.24 8142.08,-117.98"/>
<polygon fill="grey" stroke="grey" stroke-width="2" points="8145.3,-116.59 8138.53,-108.45 8138.74,-119.04 8145.3,-116.59"/>
</g>
<!-- 39 -->
<g id="node40" class="node">
<title>39</title>
<path fill="none" stroke="#9fd856" stroke-width="2" stroke-dasharray="5,2" d="M8129.5,-182.5C8129.5,-182.5 8059.5,-182.5 8059.5,-182.5 8053.5,-182.5 8047.5,-176.5 8047.5,-170.5 8047.5,-170.5 8047.5,-158.5 8047.5,-158.5 8047.5,-152.5 8053.5,-146.5 8059.5,-146.5 8059.5,-146.5 8129.5,-146.5 8129.5,-146.5 8135.5,-146.5 8141.5,-152.5 8141.5,-158.5 8141.5,-158.5 8141.5,-170.5 8141.5,-170.5 8141.5,-176.5 8135.5,-182.5 8129.5,-182.5"/>
<text text-anchor="middle" x="8094.5" y="-162" font-family="sans" font-size="10.00">samtools_index</text>
</g>
<!-- 36&#45;&gt;39 -->
<g id="edge49" class="edge">
<title>36&#45;&gt;39</title>
<path fill="none" stroke="grey" stroke-width="2" d="M8150.96,-220.82C8141.47,-211.52 8129.59,-199.88 8119.18,-189.68"/>
<polygon fill="grey" stroke="grey" stroke-width="2" points="8121.5,-187.06 8111.91,-182.56 8116.6,-192.06 8121.5,-187.06"/>
</g>
<!-- 37 -->
<g id="node38" class="node">
<title>37</title>
<path fill="none" stroke="#d88556" stroke-width="2" stroke-dasharray="5,2" d="M8693.5,-329C8693.5,-329 8649.5,-329 8649.5,-329 8643.5,-329 8637.5,-323 8637.5,-317 8637.5,-317 8637.5,-305 8637.5,-305 8637.5,-299 8643.5,-293 8649.5,-293 8649.5,-293 8693.5,-293 8693.5,-293 8699.5,-293 8705.5,-299 8705.5,-305 8705.5,-305 8705.5,-317 8705.5,-317 8705.5,-323 8699.5,-329 8693.5,-329"/>
<text text-anchor="middle" x="8671.5" y="-308.5" font-family="sans" font-size="10.00">star_index</text>
</g>
<!-- 37&#45;&gt;36 -->
<g id="edge47" class="edge">
<title>37&#45;&gt;36</title>
<path fill="none" stroke="grey" stroke-width="2" d="M8637.33,-302.1C8622.67,-298.92 8605.31,-295.44 8589.5,-293 8434.08,-269.01 8392.45,-283.88 8237.5,-257 8227.02,-255.18 8215.76,-252.66 8205.45,-250.11"/>
<polygon fill="grey" stroke="grey" stroke-width="2" points="8206.07,-246.66 8195.52,-247.58 8204.34,-253.44 8206.07,-246.66"/>
</g>
<!-- 37&#45;&gt;41 -->
<g id="edge54" class="edge">
<title>37&#45;&gt;41</title>
<path fill="none" stroke="grey" stroke-width="2" d="M8637.37,-301.8C8622.72,-298.57 8605.35,-295.13 8589.5,-293 8337.93,-259.15 8265.64,-319.03 8019.5,-257 8019.4,-256.97 8019.29,-256.95 8019.19,-256.92"/>
<polygon fill="grey" stroke="grey" stroke-width="2" points="8020.16,-253.56 8009.57,-253.79 8017.99,-260.21 8020.16,-253.56"/>
</g>
<!-- 37&#45;&gt;44 -->
<g id="edge60" class="edge">
<title>37&#45;&gt;44</title>
<path fill="none" stroke="grey" stroke-width="2" d="M8637.25,-302.59C8622.57,-299.5 8605.22,-295.95 8589.5,-293 8488.92,-274.15 8369.72,-255.02 8310.6,-245.75"/>
<polygon fill="grey" stroke="grey" stroke-width="2" points="8311.04,-242.28 8300.61,-244.19 8309.95,-249.19 8311.04,-242.28"/>
</g>
<!-- 37&#45;&gt;47 -->
<g id="edge66" class="edge">
<title>37&#45;&gt;47</title>
<path fill="none" stroke="grey" stroke-width="2" d="M8705.74,-305.12C8782.37,-294.18 8965.79,-267.76 9027.5,-257 9043.28,-254.25 9060.63,-250.85 9075.52,-247.81"/>
<polygon fill="grey" stroke="grey" stroke-width="2" points="9076.3,-251.22 9085.39,-245.78 9074.88,-244.37 9076.3,-251.22"/>
</g>
<!-- 37&#45;&gt;50 -->
<g id="edge72" class="edge">
<title>37&#45;&gt;50</title>
<path fill="none" stroke="grey" stroke-width="2" d="M8651.97,-292.7C8642.12,-283.97 8630.01,-273.24 8619.3,-263.75"/>
<polygon fill="grey" stroke="grey" stroke-width="2" points="8621.61,-261.12 8611.8,-257.1 8616.97,-266.36 8621.61,-261.12"/>
</g>
<!-- 37&#45;&gt;53 -->
<g id="edge78" class="edge">
<title>37&#45;&gt;53</title>
<path fill="none" stroke="grey" stroke-width="2" d="M8705.75,-302.51C8766.38,-289.25 8892.1,-261.74 8954.59,-248.07"/>
<polygon fill="grey" stroke="grey" stroke-width="2" points="8955.39,-251.48 8964.42,-245.92 8953.9,-244.64 8955.39,-251.48"/>
</g>
<!-- 37&#45;&gt;56 -->
<g id="edge84" class="edge">
<title>37&#45;&gt;56</title>
<path fill="none" stroke="grey" stroke-width="2" d="M8637.49,-297.69C8632.81,-296.07 8628.04,-294.46 8623.5,-293 8573.68,-276.94 8515.52,-260.38 8478.6,-250.14"/>
<polygon fill="grey" stroke="grey" stroke-width="2" points="8479.35,-246.71 8468.78,-247.42 8477.49,-253.46 8479.35,-246.71"/>
</g>
<!-- 37&#45;&gt;59 -->
<g id="edge90" class="edge">
<title>37&#45;&gt;59</title>
<path fill="none" stroke="grey" stroke-width="2" d="M8682.13,-292.7C8687.13,-284.56 8693.19,-274.69 8698.71,-265.7"/>
<polygon fill="grey" stroke="grey" stroke-width="2" points="8701.74,-267.46 8703.99,-257.1 8695.78,-263.79 8701.74,-267.46"/>
</g>
<!-- 38 -->
<g id="node39" class="node">
<title>38</title>
<path fill="none" stroke="#56b1d8" stroke-width="2" stroke-dasharray="5,2" d="M8760.5,-401C8760.5,-401 8706.5,-401 8706.5,-401 8700.5,-401 8694.5,-395 8694.5,-389 8694.5,-389 8694.5,-377 8694.5,-377 8694.5,-371 8700.5,-365 8706.5,-365 8706.5,-365 8760.5,-365 8760.5,-365 8766.5,-365 8772.5,-371 8772.5,-377 8772.5,-377 8772.5,-389 8772.5,-389 8772.5,-395 8766.5,-401 8760.5,-401"/>
<text text-anchor="middle" x="8733.5" y="-380.5" font-family="sans" font-size="10.00">extract_data</text>
</g>
<!-- 38&#45;&gt;35 -->
<g id="edge45" class="edge">
<title>38&#45;&gt;35</title>
<path fill="none" stroke="grey" stroke-width="2" d="M8694.4,-382C8364.49,-381.87 6056.74,-379.2 6007.5,-329 5964.27,-284.92 6047.84,-262.94 6350.5,-221 7077.28,-120.28 7267.25,-179.31 7997.5,-108 8024.15,-105.4 8053.69,-101.73 8078.23,-98.47"/>
<polygon fill="grey" stroke="grey" stroke-width="2" points="8078.98,-101.91 8088.42,-97.11 8078.05,-94.97 8078.98,-101.91"/>
</g>
<!-- 38&#45;&gt;37 -->
<g id="edge48" class="edge">
<title>38&#45;&gt;37</title>
<path fill="none" stroke="grey" stroke-width="2" d="M8718.17,-364.7C8710.74,-356.3 8701.68,-346.07 8693.52,-336.86"/>
<polygon fill="grey" stroke="grey" stroke-width="2" points="8695.9,-334.27 8686.65,-329.1 8690.66,-338.91 8695.9,-334.27"/>
</g>
<!-- 40 -->
<g id="node41" class="node">
<title>40</title>
<path fill="none" stroke="#ced856" stroke-width="2" stroke-dasharray="5,2" d="M7976.5,-108C7976.5,-108 7914.5,-108 7914.5,-108 7908.5,-108 7902.5,-102 7902.5,-96 7902.5,-96 7902.5,-84 7902.5,-84 7902.5,-78 7908.5,-72 7914.5,-72 7914.5,-72 7976.5,-72 7976.5,-72 7982.5,-72 7988.5,-78 7988.5,-84 7988.5,-84 7988.5,-96 7988.5,-96 7988.5,-102 7982.5,-108 7976.5,-108"/>
<text text-anchor="middle" x="7945.5" y="-87.5" font-family="sans" font-size="10.00">featureCounts</text>
</g>
<!-- 38&#45;&gt;40 -->
<g id="edge52" class="edge">
<title>38&#45;&gt;40</title>
<path fill="none" stroke="grey" stroke-width="2" d="M8694.47,-382C8363.82,-381.91 6043.01,-379.47 5993.5,-329 5884.45,-217.82 6223.31,-183.65 6651.5,-144 7131.68,-99.54 7715.54,-92.37 7892.31,-91.22"/>
<polygon fill="grey" stroke="grey" stroke-width="2" points="7892.41,-94.72 7902.39,-91.16 7892.37,-87.72 7892.41,-94.72"/>
</g>
<!-- 43 -->
<g id="node44" class="node">
<title>43</title>
<path fill="none" stroke="#ced856" stroke-width="2" stroke-dasharray="5,2" d="M8369.5,-108C8369.5,-108 8307.5,-108 8307.5,-108 8301.5,-108 8295.5,-102 8295.5,-96 8295.5,-96 8295.5,-84 8295.5,-84 8295.5,-78 8301.5,-72 8307.5,-72 8307.5,-72 8369.5,-72 8369.5,-72 8375.5,-72 8381.5,-78 8381.5,-84 8381.5,-84 8381.5,-96 8381.5,-96 8381.5,-102 8375.5,-108 8369.5,-108"/>
<text text-anchor="middle" x="8338.5" y="-87.5" font-family="sans" font-size="10.00">featureCounts</text>
</g>
<!-- 38&#45;&gt;43 -->
<g id="edge58" class="edge">
<title>38&#45;&gt;43</title>
<path fill="none" stroke="grey" stroke-width="2" d="M8694.14,-365.31C8673.78,-355.9 8648.97,-343.2 8628.5,-329 8609.12,-315.56 8610.54,-303.67 8589.5,-293 8515.18,-255.31 8469.76,-310.05 8405.5,-257 8362.97,-221.88 8347.21,-155.67 8341.54,-118.36"/>
<polygon fill="grey" stroke="grey" stroke-width="2" points="8344.97,-117.64 8340.14,-108.21 8338.04,-118.6 8344.97,-117.64"/>
</g>
<!-- 46 -->
<g id="node47" class="node">
<title>46</title>
<path fill="none" stroke="#ced856" stroke-width="2" stroke-dasharray="5,2" d="M9214.5,-108C9214.5,-108 9152.5,-108 9152.5,-108 9146.5,-108 9140.5,-102 9140.5,-96 9140.5,-96 9140.5,-84 9140.5,-84 9140.5,-78 9146.5,-72 9152.5,-72 9152.5,-72 9214.5,-72 9214.5,-72 9220.5,-72 9226.5,-78 9226.5,-84 9226.5,-84 9226.5,-96 9226.5,-96 9226.5,-102 9220.5,-108 9214.5,-108"/>
<text text-anchor="middle" x="9183.5" y="-87.5" font-family="sans" font-size="10.00">featureCounts</text>
</g>
<!-- 38&#45;&gt;46 -->
<g id="edge64" class="edge">
<title>38&#45;&gt;46</title>
<path fill="none" stroke="grey" stroke-width="2" d="M8772.59,-380.07C8882.36,-374.32 9187.76,-356.04 9223.5,-329 9289.09,-279.36 9268.15,-216.06 9228.5,-144 9223.03,-134.06 9215.51,-124.28 9208.19,-115.88"/>
<polygon fill="grey" stroke="grey" stroke-width="2" points="9210.61,-113.34 9201.3,-108.28 9205.43,-118.04 9210.61,-113.34"/>
</g>
<!-- 49 -->
<g id="node50" class="node">
<title>49</title>
<path fill="none" stroke="#ced856" stroke-width="2" stroke-dasharray="5,2" d="M8636.5,-108C8636.5,-108 8574.5,-108 8574.5,-108 8568.5,-108 8562.5,-102 8562.5,-96 8562.5,-96 8562.5,-84 8562.5,-84 8562.5,-78 8568.5,-72 8574.5,-72 8574.5,-72 8636.5,-72 8636.5,-72 8642.5,-72 8648.5,-78 8648.5,-84 8648.5,-84 8648.5,-96 8648.5,-96 8648.5,-102 8642.5,-108 8636.5,-108"/>
<text text-anchor="middle" x="8605.5" y="-87.5" font-family="sans" font-size="10.00">featureCounts</text>
</g>
<!-- 38&#45;&gt;49 -->
<g id="edge70" class="edge">
<title>38&#45;&gt;49</title>
<path fill="none" stroke="grey" stroke-width="2" d="M8740.83,-364.66C8752.57,-334.14 8772.16,-269.51 8750.5,-221 8729.15,-173.19 8680.56,-135.65 8645.51,-113.45"/>
<polygon fill="grey" stroke="grey" stroke-width="2" points="8647.26,-110.42 8636.91,-108.14 8643.58,-116.37 8647.26,-110.42"/>
</g>
<!-- 52 -->
<g id="node53" class="node">
<title>52</title>
<path fill="none" stroke="#ced856" stroke-width="2" stroke-dasharray="5,2" d="M9064.5,-108C9064.5,-108 9002.5,-108 9002.5,-108 8996.5,-108 8990.5,-102 8990.5,-96 8990.5,-96 8990.5,-84 8990.5,-84 8990.5,-78 8996.5,-72 9002.5,-72 9002.5,-72 9064.5,-72 9064.5,-72 9070.5,-72 9076.5,-78 9076.5,-84 9076.5,-84 9076.5,-96 9076.5,-96 9076.5,-102 9070.5,-108 9064.5,-108"/>
<text text-anchor="middle" x="9033.5" y="-87.5" font-family="sans" font-size="10.00">featureCounts</text>
</g>
<!-- 38&#45;&gt;52 -->
<g id="edge76" class="edge">
<title>38&#45;&gt;52</title>
<path fill="none" stroke="grey" stroke-width="2" d="M8772.82,-380.38C8879.41,-375.58 9167.81,-359.84 9196.5,-329 9252.53,-268.76 9251.2,-210.31 9202.5,-144 9188.57,-125.03 9130.87,-109.8 9086.73,-100.61"/>
<polygon fill="grey" stroke="grey" stroke-width="2" points="9087.19,-97.13 9076.69,-98.58 9085.8,-104 9087.19,-97.13"/>
</g>
<!-- 55 -->
<g id="node56" class="node">
<title>55</title>
<path fill="none" stroke="#ced856" stroke-width="2" stroke-dasharray="5,2" d="M8487.5,-108C8487.5,-108 8425.5,-108 8425.5,-108 8419.5,-108 8413.5,-102 8413.5,-96 8413.5,-96 8413.5,-84 8413.5,-84 8413.5,-78 8419.5,-72 8425.5,-72 8425.5,-72 8487.5,-72 8487.5,-72 8493.5,-72 8499.5,-78 8499.5,-84 8499.5,-84 8499.5,-96 8499.5,-96 8499.5,-102 8493.5,-108 8487.5,-108"/>
<text text-anchor="middle" x="8456.5" y="-87.5" font-family="sans" font-size="10.00">featureCounts</text>
</g>
<!-- 38&#45;&gt;55 -->
<g id="edge82" class="edge">
<title>38&#45;&gt;55</title>
<path fill="none" stroke="grey" stroke-width="2" d="M8732.72,-364.94C8731.24,-346.26 8726.95,-315.9 8714.5,-293 8703.69,-273.12 8690.57,-276.14 8678.5,-257 8650.07,-211.94 8677.23,-180.59 8638.5,-144 8619.83,-126.37 8556.3,-110.54 8509.53,-100.86"/>
<polygon fill="grey" stroke="grey" stroke-width="2" points="8510.03,-97.39 8499.53,-98.84 8508.64,-104.25 8510.03,-97.39"/>
</g>
<!-- 58 -->
<g id="node59" class="node">
<title>58</title>
<path fill="none" stroke="#ced856" stroke-width="2" stroke-dasharray="5,2" d="M8820.5,-108C8820.5,-108 8758.5,-108 8758.5,-108 8752.5,-108 8746.5,-102 8746.5,-96 8746.5,-96 8746.5,-84 8746.5,-84 8746.5,-78 8752.5,-72 8758.5,-72 8758.5,-72 8820.5,-72 8820.5,-72 8826.5,-72 8832.5,-78 8832.5,-84 8832.5,-84 8832.5,-96 8832.5,-96 8832.5,-102 8826.5,-108 8820.5,-108"/>
<text text-anchor="middle" x="8789.5" y="-87.5" font-family="sans" font-size="10.00">featureCounts</text>
</g>
<!-- 38&#45;&gt;58 -->
<g id="edge88" class="edge">
<title>38&#45;&gt;58</title>
<path fill="none" stroke="grey" stroke-width="2" d="M8772.85,-380.25C8876.65,-375.22 9151.73,-359.14 9178.5,-329 9189.12,-317.04 9188.87,-305.18 9178.5,-293 9113.41,-216.56 9035.66,-317.45 8955.5,-257 8911.21,-223.6 8941.72,-183.22 8902.5,-144 8885.82,-127.32 8862.9,-115.25 8842.06,-106.88"/>
<polygon fill="grey" stroke="grey" stroke-width="2" points="8843.25,-103.58 8832.66,-103.29 8840.76,-110.12 8843.25,-103.58"/>
</g>
<!-- 39&#45;&gt;35 -->
<g id="edge44" class="edge">
<title>39&#45;&gt;35</title>
<path fill="none" stroke="grey" stroke-width="2" d="M8103.27,-146.32C8107.74,-137.56 8113.27,-126.73 8118.24,-116.97"/>
<polygon fill="grey" stroke="grey" stroke-width="2" points="8121.37,-118.56 8122.79,-108.06 8115.13,-115.37 8121.37,-118.56"/>
</g>
<!-- 40&#45;&gt;0 -->
<g id="edge4" class="edge">
<title>40&#45;&gt;0</title>
<path fill="none" stroke="grey" stroke-width="2" d="M7988.57,-82.22C8075.61,-68.53 8271.09,-37.78 8353.13,-24.88"/>
<polygon fill="grey" stroke="grey" stroke-width="2" points="8353.91,-28.3 8363.25,-23.29 8352.83,-21.38 8353.91,-28.3"/>
</g>
<!-- 41&#45;&gt;40 -->
<g id="edge50" class="edge">
<title>41&#45;&gt;40</title>
<path fill="none" stroke="grey" stroke-width="2" d="M7956.38,-220.82C7944.92,-211.69 7932.69,-199.39 7926.5,-185 7917.2,-163.38 7923.96,-136.98 7931.88,-117.66"/>
<polygon fill="grey" stroke="grey" stroke-width="2" points="7935.19,-118.83 7936.05,-108.27 7928.8,-115.99 7935.19,-118.83"/>
</g>
<!-- 42 -->
<g id="node43" class="node">
<title>42</title>
<path fill="none" stroke="#9fd856" stroke-width="2" stroke-dasharray="5,2" d="M8017.5,-182.5C8017.5,-182.5 7947.5,-182.5 7947.5,-182.5 7941.5,-182.5 7935.5,-176.5 7935.5,-170.5 7935.5,-170.5 7935.5,-158.5 7935.5,-158.5 7935.5,-152.5 7941.5,-146.5 7947.5,-146.5 7947.5,-146.5 8017.5,-146.5 8017.5,-146.5 8023.5,-146.5 8029.5,-152.5 8029.5,-158.5 8029.5,-158.5 8029.5,-170.5 8029.5,-170.5 8029.5,-176.5 8023.5,-182.5 8017.5,-182.5"/>
<text text-anchor="middle" x="7982.5" y="-162" font-family="sans" font-size="10.00">samtools_index</text>
</g>
<!-- 41&#45;&gt;42 -->
<g id="edge55" class="edge">
<title>41&#45;&gt;42</title>
<path fill="none" stroke="grey" stroke-width="2" d="M7982.5,-220.82C7982.5,-212.42 7982.5,-202.12 7982.5,-192.69"/>
<polygon fill="grey" stroke="grey" stroke-width="2" points="7986,-192.56 7982.5,-182.56 7979,-192.56 7986,-192.56"/>
</g>
<!-- 42&#45;&gt;40 -->
<g id="edge51" class="edge">
<title>42&#45;&gt;40</title>
<path fill="none" stroke="grey" stroke-width="2" d="M7973.73,-146.32C7969.26,-137.56 7963.73,-126.73 7958.76,-116.97"/>
<polygon fill="grey" stroke="grey" stroke-width="2" points="7961.87,-115.37 7954.21,-108.06 7955.63,-118.56 7961.87,-115.37"/>
</g>
<!-- 43&#45;&gt;0 -->
<g id="edge5" class="edge">
<title>43&#45;&gt;0</title>
<path fill="none" stroke="grey" stroke-width="2" d="M8351.35,-71.7C8357.53,-63.39 8365.04,-53.28 8371.82,-44.14"/>
<polygon fill="grey" stroke="grey" stroke-width="2" points="8374.64,-46.22 8377.79,-36.1 8369.02,-42.04 8374.64,-46.22"/>
</g>
<!-- 44&#45;&gt;43 -->
<g id="edge56" class="edge">
<title>44&#45;&gt;43</title>
<path fill="none" stroke="grey" stroke-width="2" d="M8282.64,-221C8288.06,-210.69 8294.93,-197.22 8300.5,-185 8310.71,-162.6 8321.11,-136.62 8328.44,-117.65"/>
<polygon fill="grey" stroke="grey" stroke-width="2" points="8331.76,-118.76 8332.08,-108.17 8325.23,-116.25 8331.76,-118.76"/>
</g>
<!-- 45 -->
<g id="node46" class="node">
<title>45</title>
<path fill="none" stroke="#9fd856" stroke-width="2" stroke-dasharray="5,2" d="M8279.5,-182.5C8279.5,-182.5 8209.5,-182.5 8209.5,-182.5 8203.5,-182.5 8197.5,-176.5 8197.5,-170.5 8197.5,-170.5 8197.5,-158.5 8197.5,-158.5 8197.5,-152.5 8203.5,-146.5 8209.5,-146.5 8209.5,-146.5 8279.5,-146.5 8279.5,-146.5 8285.5,-146.5 8291.5,-152.5 8291.5,-158.5 8291.5,-158.5 8291.5,-170.5 8291.5,-170.5 8291.5,-176.5 8285.5,-182.5 8279.5,-182.5"/>
<text text-anchor="middle" x="8244.5" y="-162" font-family="sans" font-size="10.00">samtools_index</text>
</g>
<!-- 44&#45;&gt;45 -->
<g id="edge61" class="edge">
<title>44&#45;&gt;45</title>
<path fill="none" stroke="grey" stroke-width="2" d="M8266.63,-220.82C8263.2,-212.24 8258.97,-201.67 8255.13,-192.08"/>
<polygon fill="grey" stroke="grey" stroke-width="2" points="8258.29,-190.54 8251.32,-182.56 8251.79,-193.14 8258.29,-190.54"/>
</g>
<!-- 45&#45;&gt;43 -->
<g id="edge57" class="edge">
<title>45&#45;&gt;43</title>
<path fill="none" stroke="grey" stroke-width="2" d="M8266.78,-146.32C8279.19,-136.75 8294.81,-124.7 8308.3,-114.29"/>
<polygon fill="grey" stroke="grey" stroke-width="2" points="8310.6,-116.94 8316.38,-108.06 8306.33,-111.39 8310.6,-116.94"/>
</g>
<!-- 46&#45;&gt;0 -->
<g id="edge6" class="edge">
<title>46&#45;&gt;0</title>
<path fill="none" stroke="grey" stroke-width="2" d="M9140.21,-80.57C9123.21,-77.5 9103.49,-74.24 9085.5,-72 8835.32,-40.83 8532.02,-25.29 8427.78,-20.59"/>
<polygon fill="grey" stroke="grey" stroke-width="2" points="8427.9,-17.09 8417.75,-20.14 8427.58,-24.08 8427.9,-17.09"/>
</g>
<!-- 47&#45;&gt;46 -->
<g id="edge62" class="edge">
<title>47&#45;&gt;46</title>
<path fill="none" stroke="grey" stroke-width="2" d="M9139.93,-230.1C9161.18,-222.37 9189.18,-208.3 9202.5,-185 9214.43,-164.13 9206.86,-136.9 9197.99,-117.13"/>
<polygon fill="grey" stroke="grey" stroke-width="2" points="9201.12,-115.55 9193.61,-108.08 9194.82,-118.6 9201.12,-115.55"/>
</g>
<!-- 48 -->
<g id="node49" class="node">
<title>48</title>
<path fill="none" stroke="#9fd856" stroke-width="2" stroke-dasharray="5,2" d="M9181.5,-182.5C9181.5,-182.5 9111.5,-182.5 9111.5,-182.5 9105.5,-182.5 9099.5,-176.5 9099.5,-170.5 9099.5,-170.5 9099.5,-158.5 9099.5,-158.5 9099.5,-152.5 9105.5,-146.5 9111.5,-146.5 9111.5,-146.5 9181.5,-146.5 9181.5,-146.5 9187.5,-146.5 9193.5,-152.5 9193.5,-158.5 9193.5,-158.5 9193.5,-170.5 9193.5,-170.5 9193.5,-176.5 9187.5,-182.5 9181.5,-182.5"/>
<text text-anchor="middle" x="9146.5" y="-162" font-family="sans" font-size="10.00">samtools_index</text>
</g>
<!-- 47&#45;&gt;48 -->
<g id="edge67" class="edge">
<title>47&#45;&gt;48</title>
<path fill="none" stroke="grey" stroke-width="2" d="M9120.56,-220.82C9124.62,-212.15 9129.64,-201.45 9134.18,-191.78"/>
<polygon fill="grey" stroke="grey" stroke-width="2" points="9137.42,-193.1 9138.5,-182.56 9131.09,-190.13 9137.42,-193.1"/>
</g>
<!-- 48&#45;&gt;46 -->
<g id="edge63" class="edge">
<title>48&#45;&gt;46</title>
<path fill="none" stroke="grey" stroke-width="2" d="M9155.27,-146.32C9159.74,-137.56 9165.27,-126.73 9170.24,-116.97"/>
<polygon fill="grey" stroke="grey" stroke-width="2" points="9173.37,-118.56 9174.79,-108.06 9167.13,-115.37 9173.37,-118.56"/>
</g>
<!-- 49&#45;&gt;0 -->
<g id="edge7" class="edge">
<title>49&#45;&gt;0</title>
<path fill="none" stroke="grey" stroke-width="2" d="M8562.25,-74.92C8522.8,-62.07 8465.1,-43.29 8427.68,-31.1"/>
<polygon fill="grey" stroke="grey" stroke-width="2" points="8428.28,-27.62 8417.69,-27.85 8426.11,-34.28 8428.28,-27.62"/>
</g>
<!-- 50&#45;&gt;49 -->
<g id="edge68" class="edge">
<title>50&#45;&gt;49</title>
<path fill="none" stroke="grey" stroke-width="2" d="M8613.32,-220.62C8622.96,-211.2 8633.39,-198.7 8638.5,-185 8644.87,-167.93 8643.51,-161.52 8638.5,-144 8635.79,-134.51 8630.83,-125.06 8625.57,-116.83"/>
<polygon fill="grey" stroke="grey" stroke-width="2" points="8628.36,-114.72 8619.83,-108.43 8622.58,-118.67 8628.36,-114.72"/>
</g>
<!-- 51 -->
<g id="node52" class="node">
<title>51</title>
<path fill="none" stroke="#9fd856" stroke-width="2" stroke-dasharray="5,2" d="M8617.5,-182.5C8617.5,-182.5 8547.5,-182.5 8547.5,-182.5 8541.5,-182.5 8535.5,-176.5 8535.5,-170.5 8535.5,-170.5 8535.5,-158.5 8535.5,-158.5 8535.5,-152.5 8541.5,-146.5 8547.5,-146.5 8547.5,-146.5 8617.5,-146.5 8617.5,-146.5 8623.5,-146.5 8629.5,-152.5 8629.5,-158.5 8629.5,-158.5 8629.5,-170.5 8629.5,-170.5 8629.5,-176.5 8623.5,-182.5 8617.5,-182.5"/>
<text text-anchor="middle" x="8582.5" y="-162" font-family="sans" font-size="10.00">samtools_index</text>
</g>
<!-- 50&#45;&gt;51 -->
<g id="edge73" class="edge">
<title>50&#45;&gt;51</title>
<path fill="none" stroke="grey" stroke-width="2" d="M8590.13,-220.82C8588.97,-212.42 8587.55,-202.12 8586.25,-192.69"/>
<polygon fill="grey" stroke="grey" stroke-width="2" points="8589.69,-191.99 8584.85,-182.56 8582.75,-192.94 8589.69,-191.99"/>
</g>
<!-- 51&#45;&gt;49 -->
<g id="edge69" class="edge">
<title>51&#45;&gt;49</title>
<path fill="none" stroke="grey" stroke-width="2" d="M8587.95,-146.32C8590.64,-137.83 8593.95,-127.39 8596.97,-117.88"/>
<polygon fill="grey" stroke="grey" stroke-width="2" points="8600.4,-118.65 8600.09,-108.06 8593.73,-116.53 8600.4,-118.65"/>
</g>
<!-- 52&#45;&gt;0 -->
<g id="edge8" class="edge">
<title>52&#45;&gt;0</title>
<path fill="none" stroke="grey" stroke-width="2" d="M8990.31,-84.3C8871.24,-71.34 8539.72,-35.24 8427.89,-23.07"/>
<polygon fill="grey" stroke="grey" stroke-width="2" points="8428.08,-19.57 8417.76,-21.97 8427.33,-26.53 8428.08,-19.57"/>
</g>
<!-- 53&#45;&gt;52 -->
<g id="edge74" class="edge">
<title>53&#45;&gt;52</title>
<path fill="none" stroke="grey" stroke-width="2" d="M9018.62,-222.21C9031.45,-213.13 9045.46,-200.45 9052.5,-185 9062.37,-163.36 9055.3,-136.6 9047.13,-117.17"/>
<polygon fill="grey" stroke="grey" stroke-width="2" points="9050.3,-115.67 9042.97,-108.01 9043.92,-118.56 9050.3,-115.67"/>
</g>
<!-- 54 -->
<g id="node55" class="node">
<title>54</title>
<path fill="none" stroke="#9fd856" stroke-width="2" stroke-dasharray="5,2" d="M9031.5,-182.5C9031.5,-182.5 8961.5,-182.5 8961.5,-182.5 8955.5,-182.5 8949.5,-176.5 8949.5,-170.5 8949.5,-170.5 8949.5,-158.5 8949.5,-158.5 8949.5,-152.5 8955.5,-146.5 8961.5,-146.5 8961.5,-146.5 9031.5,-146.5 9031.5,-146.5 9037.5,-146.5 9043.5,-152.5 9043.5,-158.5 9043.5,-158.5 9043.5,-170.5 9043.5,-170.5 9043.5,-176.5 9037.5,-182.5 9031.5,-182.5"/>
<text text-anchor="middle" x="8996.5" y="-162" font-family="sans" font-size="10.00">samtools_index</text>
</g>
<!-- 53&#45;&gt;54 -->
<g id="edge79" class="edge">
<title>53&#45;&gt;54</title>
<path fill="none" stroke="grey" stroke-width="2" d="M8992.68,-220.82C8993.26,-212.42 8993.97,-202.12 8994.63,-192.69"/>
<polygon fill="grey" stroke="grey" stroke-width="2" points="8998.13,-192.78 8995.32,-182.56 8991.14,-192.29 8998.13,-192.78"/>
</g>
<!-- 54&#45;&gt;52 -->
<g id="edge75" class="edge">
<title>54&#45;&gt;52</title>
<path fill="none" stroke="grey" stroke-width="2" d="M9005.27,-146.32C9009.74,-137.56 9015.27,-126.73 9020.24,-116.97"/>
<polygon fill="grey" stroke="grey" stroke-width="2" points="9023.37,-118.56 9024.79,-108.06 9017.13,-115.37 9023.37,-118.56"/>
</g>
<!-- 55&#45;&gt;0 -->
<g id="edge9" class="edge">
<title>55&#45;&gt;0</title>
<path fill="none" stroke="grey" stroke-width="2" d="M8440.19,-71.7C8432.19,-63.22 8422.43,-52.86 8413.68,-43.58"/>
<polygon fill="grey" stroke="grey" stroke-width="2" points="8416.03,-40.98 8406.63,-36.1 8410.94,-45.78 8416.03,-40.98"/>
</g>
<!-- 56&#45;&gt;55 -->
<g id="edge80" class="edge">
<title>56&#45;&gt;55</title>
<path fill="none" stroke="grey" stroke-width="2" d="M8430.03,-220.67C8424.13,-210.69 8417.54,-197.65 8414.5,-185 8410.25,-167.28 8408.51,-161.21 8414.5,-144 8418.03,-133.86 8424.41,-124.19 8431.14,-115.96"/>
<polygon fill="grey" stroke="grey" stroke-width="2" points="8433.94,-118.07 8437.9,-108.24 8428.67,-113.46 8433.94,-118.07"/>
</g>
<!-- 57 -->
<g id="node58" class="node">
<title>57</title>
<path fill="none" stroke="#9fd856" stroke-width="2" stroke-dasharray="5,2" d="M8505.5,-182.5C8505.5,-182.5 8435.5,-182.5 8435.5,-182.5 8429.5,-182.5 8423.5,-176.5 8423.5,-170.5 8423.5,-170.5 8423.5,-158.5 8423.5,-158.5 8423.5,-152.5 8429.5,-146.5 8435.5,-146.5 8435.5,-146.5 8505.5,-146.5 8505.5,-146.5 8511.5,-146.5 8517.5,-152.5 8517.5,-158.5 8517.5,-158.5 8517.5,-170.5 8517.5,-170.5 8517.5,-176.5 8511.5,-182.5 8505.5,-182.5"/>
<text text-anchor="middle" x="8470.5" y="-162" font-family="sans" font-size="10.00">samtools_index</text>
</g>
<!-- 56&#45;&gt;57 -->
<g id="edge85" class="edge">
<title>56&#45;&gt;57</title>
<path fill="none" stroke="grey" stroke-width="2" d="M8448.37,-220.82C8451.8,-212.24 8456.03,-201.67 8459.87,-192.08"/>
<polygon fill="grey" stroke="grey" stroke-width="2" points="8463.21,-193.14 8463.68,-182.56 8456.71,-190.54 8463.21,-193.14"/>
</g>
<!-- 57&#45;&gt;55 -->
<g id="edge81" class="edge">
<title>57&#45;&gt;55</title>
<path fill="none" stroke="grey" stroke-width="2" d="M8467.18,-146.32C8465.54,-137.83 8463.53,-127.39 8461.69,-117.88"/>
<polygon fill="grey" stroke="grey" stroke-width="2" points="8465.13,-117.21 8459.79,-108.06 8458.25,-118.54 8465.13,-117.21"/>
</g>
<!-- 58&#45;&gt;0 -->
<g id="edge10" class="edge">
<title>58&#45;&gt;0</title>
<path fill="none" stroke="grey" stroke-width="2" d="M8746.42,-81.44C8667.87,-67.66 8502.6,-38.67 8428.21,-25.62"/>
<polygon fill="grey" stroke="grey" stroke-width="2" points="8428.37,-22.09 8417.91,-23.81 8427.16,-28.98 8428.37,-22.09"/>
</g>
<!-- 59&#45;&gt;58 -->
<g id="edge86" class="edge">
<title>59&#45;&gt;58</title>
<path fill="none" stroke="grey" stroke-width="2" d="M8723.25,-220.85C8736.29,-195.29 8760.92,-147.01 8776.2,-117.07"/>
<polygon fill="grey" stroke="grey" stroke-width="2" points="8779.38,-118.54 8780.81,-108.04 8773.14,-115.36 8779.38,-118.54"/>
</g>
<!-- 60 -->
<g id="node61" class="node">
<title>60</title>
<path fill="none" stroke="#9fd856" stroke-width="2" stroke-dasharray="5,2" d="M8881.5,-182.5C8881.5,-182.5 8811.5,-182.5 8811.5,-182.5 8805.5,-182.5 8799.5,-176.5 8799.5,-170.5 8799.5,-170.5 8799.5,-158.5 8799.5,-158.5 8799.5,-152.5 8805.5,-146.5 8811.5,-146.5 8811.5,-146.5 8881.5,-146.5 8881.5,-146.5 8887.5,-146.5 8893.5,-152.5 8893.5,-158.5 8893.5,-158.5 8893.5,-170.5 8893.5,-170.5 8893.5,-176.5 8887.5,-182.5 8881.5,-182.5"/>
<text text-anchor="middle" x="8846.5" y="-162" font-family="sans" font-size="10.00">samtools_index</text>
</g>
<!-- 59&#45;&gt;60 -->
<g id="edge91" class="edge">
<title>59&#45;&gt;60</title>
<path fill="none" stroke="grey" stroke-width="2" d="M8741.53,-223.15C8760.19,-212.9 8785.32,-199.1 8806.32,-187.57"/>
<polygon fill="grey" stroke="grey" stroke-width="2" points="8808.26,-190.5 8815.34,-182.62 8804.89,-184.36 8808.26,-190.5"/>
</g>
<!-- 60&#45;&gt;58 -->
<g id="edge87" class="edge">
<title>60&#45;&gt;58</title>
<path fill="none" stroke="grey" stroke-width="2" d="M8832.99,-146.32C8825.89,-137.29 8817.06,-126.05 8809.21,-116.07"/>
<polygon fill="grey" stroke="grey" stroke-width="2" points="8811.84,-113.76 8802.91,-108.06 8806.34,-118.08 8811.84,-113.76"/>
</g>
</g>
</svg>
